<mxfile host="app.diagrams.net" modified="2020-04-19T02:40:50.345Z" agent="5.0 (Windows NT 10.0; Win64; x64) AppleWebKit/537.36 (KHTML, like Gecko) Chrome/80.0.3987.163 Safari/537.36" etag="ydRk-vc5vc429h_OTtkm" version="12.9.13" type="github">
  <diagram id="LSBM9up_z88ye8JgFCYF" name="Page-1">
    <mxGraphModel dx="780" dy="1105" grid="1" gridSize="10" guides="1" tooltips="1" connect="1" arrows="1" fold="1" page="1" pageScale="1" pageWidth="850" pageHeight="1100" math="0" shadow="0">
      <root>
        <mxCell id="0" />
        <mxCell id="1" parent="0" />
        <mxCell id="p1DqyfPZFr3gklFBK7y1-4" style="edgeStyle=orthogonalEdgeStyle;rounded=0;orthogonalLoop=1;jettySize=auto;html=1;exitX=1;exitY=0.5;exitDx=0;exitDy=0;comic=1;" edge="1" parent="1" source="p1DqyfPZFr3gklFBK7y1-1" target="p1DqyfPZFr3gklFBK7y1-3">
          <mxGeometry relative="1" as="geometry" />
        </mxCell>
        <mxCell id="p1DqyfPZFr3gklFBK7y1-1" value="Rendering&lt;br&gt;Engine" style="rounded=0;whiteSpace=wrap;html=1;comic=1;" vertex="1" parent="1">
          <mxGeometry x="280" y="160" width="120" height="60" as="geometry" />
        </mxCell>
        <mxCell id="p1DqyfPZFr3gklFBK7y1-2" value="Collision &lt;br&gt;Engine" style="rounded=0;whiteSpace=wrap;html=1;comic=1;" vertex="1" parent="1">
          <mxGeometry x="280" y="240" width="120" height="60" as="geometry" />
        </mxCell>
        <mxCell id="p1DqyfPZFr3gklFBK7y1-3" value="Graphics&lt;br&gt;Component" style="rounded=0;whiteSpace=wrap;html=1;comic=1;" vertex="1" parent="1">
          <mxGeometry x="440" y="160" width="120" height="60" as="geometry" />
        </mxCell>
      </root>
    </mxGraphModel>
  </diagram>
</mxfile>
